<svg width="133" height="105" viewBox="0 0 133 105" fill="none" xmlns="http://www.w3.org/2000/svg">
<path d="M64.1071 3.24602C62.7909 4.19897 61.3851 5.27105 60.9663 5.56885C60.5476 5.89642 56.9882 8.48728 53.0399 11.3163C44.0365 17.8381 43.528 18.1955 41.5239 19.6845C40.6266 20.3396 39.1011 21.4414 38.1738 22.1264C33.8965 25.2533 33.7469 25.3724 33.7469 26.0871C33.7469 26.4743 34.0162 26.921 34.3153 27.0996C35.2126 27.5761 99.0141 27.5165 99.4921 27.0401C100.3 26.236 99.881 25.1937 98.3256 24.1216C97.4886 23.5558 96.322 22.6922 95.7234 22.2157C95.1255 21.7691 94.1379 21.0543 93.57 20.6672C93.0013 20.2801 91.7156 19.3569 90.7281 18.6124C89.7413 17.8679 88.3057 16.8256 87.528 16.2896C86.7502 15.7833 83.0114 13.0436 79.2127 10.2741C75.4139 7.47474 72.004 5.00303 71.6149 4.76479C71.2559 4.52655 70.0894 3.69272 68.9827 2.88866C67.9058 2.11439 66.9188 1.48901 66.7692 1.48901C66.6197 1.48901 65.4232 2.29307 64.1071 3.24602ZM67.6965 5.03281C67.846 5.27105 72.0932 8.39789 76.0418 11.1674C76.7596 11.644 77.9262 12.5075 78.644 13.0436C79.3618 13.5796 82.0239 15.5153 84.5669 17.3616C93.0013 23.4665 93.869 24.1514 93.869 24.4195C93.869 24.8066 40.1181 24.8364 39.8788 24.4492C39.7891 24.2706 40.0284 23.943 40.3873 23.675C41.2547 23.0496 43.8869 21.1734 46.1004 19.5654C47.0575 18.8804 48.583 17.7786 49.4505 17.1234C50.3478 16.4682 51.634 15.5153 52.322 15.0388C53.01 14.5326 54.5055 13.4605 55.6122 12.6564C56.7189 11.8226 58.9623 10.2145 60.5476 9.08288C62.1329 7.92142 64.137 6.49202 64.9745 5.86664C66.4701 4.76479 67.3375 4.49677 67.6965 5.03281Z" fill="white"/>
<path d="M56.4198 30.3753C54.2961 30.7029 51.7536 31.775 51.3947 32.4897C50.9759 33.2341 51.0058 57.6238 51.3947 58.3981C51.8135 59.1723 52.5612 59.1128 54.2662 58.1301C55.6421 57.3855 55.9412 57.326 59.4708 57.326C63.0004 57.326 63.3294 57.3855 64.825 58.1301C66.5898 59.0532 67.6067 59.1723 68.1451 58.5172C68.8929 57.6238 71.6448 57.0878 74.8752 57.2367C77.4774 57.3558 78.1353 57.5047 79.6015 58.2492C82.5326 59.7084 82.3528 60.5124 82.4427 45.4439L82.5027 32.4599L81.5451 31.8643C78.7339 30.1371 72.6319 29.6904 69.192 30.9709C66.9786 31.775 66.6197 31.775 64.5557 31.0305C62.6115 30.3158 58.8127 30.0179 56.4198 30.3753ZM64.0472 33.5022L65.4531 34.0084V40.8578C65.4531 44.9972 65.5727 47.9156 65.7522 48.273C66.1111 48.8984 67.2478 49.0175 67.7862 48.4814C68.0554 48.2134 68.1451 46.1884 68.1451 41.2151C68.1451 33.7107 68.0853 34.0084 69.9398 33.383C72.5121 32.5194 78.674 32.7577 79.4517 33.7702C79.8106 34.2169 80.1995 54.2289 79.8406 54.7649C79.6308 55.1223 79.1827 55.1223 77.1185 54.7947C74.1874 54.348 71.2858 54.5565 68.6536 55.4201C66.8889 55.9859 66.6794 56.0157 65.6326 55.569C63.5986 54.7351 59.74 54.348 57.1377 54.7054C55.8515 54.9139 54.5952 55.0925 54.3858 55.1521C53.997 55.2414 53.9372 53.7227 53.8474 44.61C53.7876 34.1276 53.7876 33.9786 54.3858 33.6511C56.2104 32.6683 61.4151 32.6088 64.0472 33.5022Z" fill="white"/>
<path d="M37.2765 30.703C36.768 30.971 36.7381 31.9537 36.7381 44.6101C36.7381 54.8246 36.8278 58.3386 37.097 58.6066C37.3363 58.8449 38.9515 58.964 42.4512 58.964C46.7285 58.964 47.4763 58.9045 47.6259 58.4875C47.7156 58.2195 47.8053 51.9359 47.8053 44.5208C47.8053 31.4475 47.7754 30.971 47.237 30.6732C46.4892 30.2861 37.9645 30.2861 37.2765 30.703ZM45.1133 33.5619C45.2927 39.8156 45.2329 55.6882 45.0535 56.0455C44.8441 56.4923 44.3954 56.5816 42.3315 56.5816C40.806 56.5816 39.6993 56.4327 39.4899 56.2243C39.2207 55.9562 39.131 53.0378 39.131 44.9377C39.131 38.9222 39.2207 33.8001 39.3104 33.5321C39.46 33.1449 40.0284 33.0556 42.3016 33.0556C44.7843 33.0556 45.1133 33.1152 45.1133 33.5619Z" fill="white"/>
<path d="M86.3014 30.9113C85.8526 31.4176 85.7927 32.8172 85.7927 44.8482C85.7927 54.884 85.8826 58.3384 86.1516 58.6065C86.3913 58.8447 88.036 58.9638 91.5358 58.9638C96.1722 58.9638 96.561 58.934 96.86 58.398C97.0398 58.0109 97.159 53.1568 97.159 44.6993C97.159 31.9536 97.1297 31.5367 96.561 30.9708C96.0223 30.4348 95.5742 30.3752 91.3866 30.3752C87.3182 30.3752 86.7203 30.4348 86.3014 30.9113ZM94.4077 44.7291L94.4669 56.2836L93.779 56.4326C93.4201 56.5219 92.1044 56.5815 90.8779 56.5219L88.6346 56.4326L88.5447 45.1163C88.5147 38.8923 88.5447 33.6212 88.6346 33.4128C88.7245 33.1448 89.5022 33.0554 91.5358 33.115L94.3178 33.2044L94.4077 44.7291Z" fill="white"/>
<path d="M34.1058 62.597C33.5974 63.1033 33.5974 69.7144 34.1058 70.2206C34.6144 70.7269 98.9841 70.7269 99.4921 70.2206C100.001 69.7144 100.001 63.1033 99.4921 62.597C98.9841 62.0907 34.6144 62.0907 34.1058 62.597ZM97.3088 66.4088V67.7489L66.8889 67.8383L36.439 67.8978V66.4088V64.9198L66.8889 64.9794L97.3088 65.0687V66.4088Z" fill="white"/>
<path d="M26.5425 102.503C23.8848 102.503 21.8081 101.768 20.3121 100.298C18.816 98.8283 18.0681 96.7368 18.0681 94.0246V83.7871H22.7409V93.8933C22.7409 95.5556 23.0753 96.7631 23.7441 97.5158C24.4305 98.2508 25.3809 98.6183 26.5953 98.6183C27.8097 98.6183 28.7513 98.2508 29.4201 97.5158C30.1065 96.7631 30.4497 95.5556 30.4497 93.8933V83.7871H35.0433V94.0246C35.0433 96.7368 34.2953 98.8283 32.7993 100.298C31.3032 101.768 29.2176 102.503 26.5425 102.503ZM51.071 87.7771C52.1973 87.7771 53.2005 88.0048 54.0806 88.4596C54.9782 88.8973 55.6821 89.5798 56.1926 90.5071C56.703 91.4173 56.9582 92.5986 56.9582 94.0508V102.162H52.4966V94.7596C52.4966 93.6748 52.259 92.8781 51.7838 92.3708C51.3261 91.8636 50.675 91.6096 49.8302 91.6096C49.2141 91.6096 48.6597 91.7408 48.167 92.0033C47.6918 92.2481 47.3222 92.6333 47.0582 93.1583C46.7942 93.6833 46.6622 94.3743 46.6622 95.2321V102.162H42.1742V87.9871H46.451V91.9771L45.6326 90.7958C46.143 89.7983 46.8734 89.0456 47.8238 88.5383C48.7742 88.0311 49.8566 87.7771 51.071 87.7771ZM63.9109 102.162V87.9871H68.3989V102.162H63.9109ZM66.1549 86.1758C65.3276 86.1758 64.6588 85.9481 64.1485 85.4933C63.638 85.0208 63.3829 84.4433 63.3829 83.7608C63.3829 83.0783 63.638 82.5008 64.1485 82.0283C64.6588 81.5558 65.3276 81.3196 66.1549 81.3196C66.982 81.3196 67.6508 81.5473 68.1613 82.0021C68.6716 82.4398 68.9269 82.9996 68.9269 83.6821C68.9269 84.3993 68.6716 84.9946 68.1613 85.4671C67.6508 85.9396 66.982 86.1758 66.1549 86.1758ZM75.6765 102.162V83.7871H84.8637C87.2219 83.7871 88.9907 84.2333 90.1701 85.1258C91.3667 86.0006 91.9653 87.1556 91.9653 88.5908C91.9653 89.5358 91.7184 90.3673 91.2261 91.0846C90.7509 91.7848 90.0816 92.3361 89.2197 92.7383C88.3571 93.1236 87.3539 93.3158 86.2101 93.3158L86.7117 92.1608C87.9261 92.1608 88.9907 92.3531 89.9061 92.7383C90.8387 93.1236 91.56 93.6918 92.0709 94.4446C92.5989 95.1796 92.8629 96.0721 92.8629 97.1221C92.8629 98.7148 92.2293 99.9571 90.9621 100.85C89.712 101.724 87.8555 102.162 85.3917 102.162H75.6765ZM80.2965 98.7496H85.0485C86.0688 98.7496 86.8437 98.5836 87.3717 98.2508C87.8997 97.9011 88.1637 97.3668 88.1637 96.6496C88.1637 95.9323 87.8997 95.3981 87.3717 95.0483C86.8437 94.6986 86.0688 94.5233 85.0485 94.5233H79.9533V91.2421H84.2829C85.2504 91.2421 85.9896 91.0761 86.5005 90.7433C87.0107 90.3936 87.2661 89.8856 87.2661 89.2208C87.2661 88.5383 87.0107 88.0311 86.5005 87.6983C85.9896 87.3656 85.2504 87.1996 84.2829 87.1996H80.2965V98.7496ZM99.0569 102.162V82.6846H103.545V102.162H99.0569ZM110.559 102.162V87.9871H115.047V102.162H110.559ZM112.803 86.1758C111.975 86.1758 111.307 85.9481 110.796 85.4933C110.285 85.0208 110.031 84.4433 110.031 83.7608C110.031 83.0783 110.285 82.5008 110.796 82.0283C111.307 81.5558 111.975 81.3196 112.803 81.3196C113.63 81.3196 114.298 81.5473 114.809 82.0021C115.319 82.4398 115.575 82.9996 115.575 83.6821C115.575 84.3993 115.319 84.9946 114.809 85.4671C114.298 85.9396 113.63 86.1758 112.803 86.1758Z" fill="white"/>
</svg>
