<svg width="133" height="105" viewBox="0 0 133 105" fill="none" xmlns="http://www.w3.org/2000/svg">
<path d="M64.1071 3.24577C62.7909 4.19873 61.3851 5.27081 60.9663 5.5686C60.5476 5.89618 56.9882 8.48704 53.0399 11.3161C44.0365 17.8379 43.528 18.1952 41.5239 19.6842C40.6266 20.3393 39.1011 21.4412 38.1738 22.1262C33.8965 25.2531 33.7469 25.3722 33.7469 26.0869C33.7469 26.474 34.0162 26.9207 34.3153 27.0994C35.2126 27.5758 99.0141 27.5163 99.4921 27.0398C100.3 26.2357 99.881 25.1935 98.3256 24.1214C97.4886 23.5556 96.322 22.692 95.7234 22.2155C95.1254 21.7688 94.1379 21.054 93.57 20.667C93.0013 20.2798 91.7156 19.3567 90.7281 18.6122C89.7413 17.8677 88.3057 16.8254 87.528 16.2893C86.7502 15.7831 83.0114 13.0433 79.2127 10.2738C75.4139 7.4745 72.004 5.00279 71.6149 4.76455C71.2559 4.52631 70.0894 3.69247 68.9827 2.88842C67.9058 2.11414 66.9188 1.48877 66.7692 1.48877C66.6197 1.48877 65.4232 2.29282 64.1071 3.24577ZM67.6965 5.03256C67.846 5.27081 72.0932 8.39765 76.0418 11.1672C76.7596 11.6437 77.9262 12.5073 78.644 13.0433C79.3618 13.5793 82.0239 15.515 84.5669 17.3614C93.0013 23.4662 93.869 24.1512 93.869 24.4192C93.869 24.8063 40.1181 24.8361 39.8788 24.449C39.7891 24.2703 40.0284 23.9428 40.3873 23.6747C41.2547 23.0493 43.8869 21.1732 46.1004 19.5651C47.0575 18.8801 48.583 17.7783 49.4505 17.1231C50.3478 16.468 51.634 15.515 52.322 15.0385C53.01 14.5323 54.5055 13.4602 55.6122 12.6562C56.7189 11.8224 58.9623 10.2142 60.5476 9.08263C62.1329 7.92118 64.137 6.49177 64.9745 5.8664C66.4701 4.76455 67.3375 4.49653 67.6965 5.03256Z" fill="#055904"/>
<path d="M56.4198 30.3755C54.2961 30.7031 51.7536 31.7752 51.3947 32.4899C50.9759 33.2344 51.0058 57.624 51.3947 58.3983C51.8135 59.1726 52.5612 59.113 54.2662 58.1303C55.6421 57.3858 55.9412 57.3263 59.4708 57.3263C63.0004 57.3263 63.3294 57.3858 64.825 58.1303C66.5898 59.0534 67.6067 59.1726 68.1451 58.5175C68.8929 57.624 71.6448 57.088 74.8752 57.2369C77.4774 57.3561 78.1353 57.5049 79.6015 58.2494C82.5326 59.7086 82.3528 60.5127 82.4427 45.4441L82.5027 32.4601L81.5451 31.8646C78.7339 30.1373 72.6319 29.6906 69.192 30.9711C66.9786 31.7752 66.6197 31.7752 64.5557 31.0307C62.6115 30.316 58.8127 30.0182 56.4198 30.3755ZM64.0472 33.5024L65.4531 34.0087V40.858C65.4531 44.9974 65.5727 47.9159 65.7522 48.2732C66.1111 48.8986 67.2478 49.0177 67.7862 48.4817C68.0554 48.2136 68.1451 46.1886 68.1451 41.2154C68.1451 33.7109 68.0853 34.0087 69.9398 33.3833C72.5121 32.5197 78.674 32.7579 79.4517 33.7704C79.8106 34.2171 80.1995 54.2291 79.8406 54.7652C79.6308 55.1225 79.1827 55.1225 77.1185 54.795C74.1874 54.3482 71.2858 54.5567 68.6536 55.4204C66.8889 55.9862 66.6794 56.016 65.6326 55.5692C63.5986 54.7354 59.74 54.3482 57.1377 54.7057C55.8515 54.9141 54.5952 55.0927 54.3858 55.1523C53.997 55.2417 53.9372 53.7229 53.8474 44.6103C53.7876 34.1278 53.7876 33.9789 54.3858 33.6513C56.2104 32.6686 61.4151 32.6091 64.0472 33.5024Z" fill="#055904"/>
<path d="M37.2765 30.7028C36.768 30.9707 36.7381 31.9535 36.7381 44.6099C36.7381 54.8243 36.8278 58.3383 37.097 58.6064C37.3363 58.8446 38.9515 58.9637 42.4512 58.9637C46.7285 58.9637 47.4763 58.9042 47.6259 58.4873C47.7156 58.2192 47.8053 51.9357 47.8053 44.5206C47.8053 31.4472 47.7754 30.9707 47.237 30.673C46.4892 30.2858 37.9645 30.2858 37.2765 30.7028ZM45.1133 33.5616C45.2927 39.8154 45.2329 55.6879 45.0535 56.0453C44.8441 56.492 44.3954 56.5814 42.3315 56.5814C40.806 56.5814 39.6993 56.4325 39.4899 56.224C39.2207 55.956 39.131 53.0375 39.131 44.9374C39.131 38.9219 39.2207 33.7998 39.3104 33.5318C39.46 33.1447 40.0284 33.0553 42.3016 33.0553C44.7843 33.0553 45.1133 33.1149 45.1133 33.5616Z" fill="#055904"/>
<path d="M86.3014 30.9116C85.8526 31.4178 85.7927 32.8174 85.7927 44.8485C85.7927 54.8843 85.8826 58.3387 86.1516 58.6067C86.3913 58.845 88.036 58.9641 91.5358 58.9641C96.1722 58.9641 96.561 58.9343 96.86 58.3983C97.0398 58.0111 97.159 53.157 97.159 44.6995C97.159 31.9538 97.1297 31.5369 96.561 30.9711C96.0223 30.4351 95.5742 30.3755 91.3866 30.3755C87.3182 30.3755 86.7203 30.4351 86.3014 30.9116ZM94.4077 44.7293L94.4669 56.2839L93.779 56.4328C93.4201 56.5221 92.1044 56.5817 90.8779 56.5221L88.6346 56.4328L88.5447 45.1165C88.5147 38.8926 88.5447 33.6215 88.6346 33.413C88.7245 33.145 89.5022 33.0557 91.5358 33.1152L94.3178 33.2046L94.4077 44.7293Z" fill="#055904"/>
<path d="M34.1058 62.597C33.5974 63.1033 33.5974 69.7144 34.1058 70.2206C34.6144 70.7269 98.9841 70.7269 99.4921 70.2206C100.001 69.7144 100.001 63.1033 99.4921 62.597C98.9841 62.0907 34.6144 62.0907 34.1058 62.597ZM97.3088 66.4088V67.7489L66.8889 67.8383L36.439 67.8978V66.4088V64.9198L66.8889 64.9794L97.3088 65.0687V66.4088Z" fill="#055904"/>
<path d="M26.5425 102.504C23.8848 102.504 21.8081 101.769 20.3121 100.299C18.816 98.8286 18.0681 96.7371 18.0681 94.0248V83.7873H22.7409V93.8936C22.7409 95.5558 23.0753 96.7633 23.7441 97.5161C24.4305 98.2511 25.3809 98.6186 26.5953 98.6186C27.8097 98.6186 28.7513 98.2511 29.4201 97.5161C30.1065 96.7633 30.4497 95.5558 30.4497 93.8936V83.7873H35.0433V94.0248C35.0433 96.7371 34.2953 98.8286 32.7993 100.299C31.3032 101.769 29.2176 102.504 26.5425 102.504ZM51.071 87.7773C52.1973 87.7773 53.2005 88.0051 54.0806 88.4598C54.9782 88.8976 55.6821 89.5801 56.1926 90.5073C56.703 91.4176 56.9582 92.5988 56.9582 94.0511V102.162H52.4966V94.7598C52.4966 93.6751 52.259 92.8783 51.7838 92.3711C51.3261 91.8638 50.675 91.6098 49.8302 91.6098C49.2141 91.6098 48.6597 91.7411 48.167 92.0036C47.6918 92.2483 47.3222 92.6336 47.0582 93.1586C46.7942 93.6836 46.6622 94.3746 46.6622 95.2323V102.162H42.1742V87.9873H46.451V91.9773L45.6326 90.7961C46.143 89.7986 46.8734 89.0458 47.8238 88.5386C48.7742 88.0313 49.8566 87.7773 51.071 87.7773ZM63.9109 102.162V87.9873H68.3989V102.162H63.9109ZM66.1549 86.1761C65.3276 86.1761 64.6588 85.9483 64.1485 85.4936C63.638 85.0211 63.3829 84.4436 63.3829 83.7611C63.3829 83.0786 63.638 82.5011 64.1485 82.0286C64.6588 81.5561 65.3276 81.3198 66.1549 81.3198C66.982 81.3198 67.6508 81.5476 68.1613 82.0023C68.6716 82.4401 68.9269 82.9998 68.9269 83.6823C68.9269 84.3996 68.6716 84.9948 68.1613 85.4673C67.6508 85.9398 66.982 86.1761 66.1549 86.1761ZM75.6765 102.162V83.7873H84.8637C87.2219 83.7873 88.9907 84.2336 90.1701 85.1261C91.3667 86.0008 91.9653 87.1558 91.9653 88.5911C91.9653 89.5361 91.7184 90.3676 91.2261 91.0848C90.7509 91.7851 90.0816 92.3363 89.2197 92.7386C88.3571 93.1238 87.3539 93.3161 86.2101 93.3161L86.7117 92.1611C87.9261 92.1611 88.9907 92.3533 89.9061 92.7386C90.8387 93.1238 91.56 93.6921 92.0709 94.4448C92.5989 95.1798 92.8629 96.0723 92.8629 97.1223C92.8629 98.7151 92.2293 99.9573 90.9621 100.85C89.712 101.725 87.8555 102.162 85.3917 102.162H75.6765ZM80.2965 98.7498H85.0485C86.0688 98.7498 86.8437 98.5838 87.3717 98.2511C87.8997 97.9013 88.1637 97.3671 88.1637 96.6498C88.1637 95.9326 87.8997 95.3983 87.3717 95.0486C86.8437 94.6988 86.0688 94.5236 85.0485 94.5236H79.9533V91.2423H84.2829C85.2504 91.2423 85.9896 91.0763 86.5005 90.7436C87.0107 90.3938 87.2661 89.8858 87.2661 89.2211C87.2661 88.5386 87.0107 88.0313 86.5005 87.6986C85.9896 87.3658 85.2504 87.1998 84.2829 87.1998H80.2965V98.7498ZM99.0569 102.162V82.6848H103.545V102.162H99.0569ZM110.559 102.162V87.9873H115.047V102.162H110.559ZM112.803 86.1761C111.975 86.1761 111.307 85.9483 110.796 85.4936C110.285 85.0211 110.031 84.4436 110.031 83.7611C110.031 83.0786 110.285 82.5011 110.796 82.0286C111.307 81.5561 111.975 81.3198 112.803 81.3198C113.63 81.3198 114.298 81.5476 114.809 82.0023C115.319 82.4401 115.575 82.9998 115.575 83.6823C115.575 84.3996 115.319 84.9948 114.809 85.4673C114.298 85.9398 113.63 86.1761 112.803 86.1761Z" fill="#8BC43E"/>
</svg>
