<svg width="138" height="145" viewBox="0 0 138 145" fill="none" xmlns="http://www.w3.org/2000/svg">
<path d="M64.214 6.50401C61.5817 8.41347 58.7699 10.5616 57.9323 11.1583C57.0948 11.8147 49.9756 17.0061 42.0786 22.6748C24.0712 35.7427 23.0542 36.4587 19.0459 39.4423C17.2511 40.755 14.2 42.9629 12.3454 44.3353C3.7904 50.6007 3.49127 50.8394 3.49127 52.2715C3.49127 53.0472 4.0297 53.9423 4.62795 54.3003C6.42271 55.255 134.03 55.1357 134.987 54.181C136.603 52.5699 135.765 50.4814 132.654 48.3332C130.979 47.1995 128.646 45.469 127.449 44.5143C126.253 43.6192 124.279 42.1871 123.142 41.4114C122.005 40.6357 119.433 38.7859 117.459 37.2941C115.484 35.8024 112.613 33.7139 111.057 32.6398C109.502 31.6254 102.024 26.1357 94.4258 20.5863C86.828 14.9773 80.0079 10.0246 79.2301 9.54722C78.5122 9.06985 76.179 7.39907 73.9655 5.78796C71.8118 4.23652 69.8376 2.98343 69.5384 2.98343C69.2393 2.98343 66.8463 4.59454 64.214 6.50401ZM71.393 10.0843C71.6921 10.5616 80.1873 16.8271 88.0843 22.3764C89.5201 23.3312 91.8533 25.0616 93.2891 26.1357C94.7249 27.2098 100.049 31.0884 105.135 34.788C122.005 47.0205 123.74 48.3929 123.74 48.9299C123.74 49.7057 16.2341 49.7653 15.7555 48.9896C15.576 48.6316 16.0546 47.9752 16.7725 47.4382C18.5074 46.1851 23.7721 42.4258 28.1991 39.2036C30.1135 37.8312 33.1646 35.6234 34.8996 34.3106C36.6943 32.9978 39.2668 31.0884 40.6428 30.1336C42.0188 29.1192 45.01 26.9711 47.2236 25.36C49.4371 23.6892 53.924 20.467 57.0948 18.1995C60.2655 15.8723 64.2738 13.0081 65.9489 11.755C68.9402 9.54722 70.6751 9.01018 71.393 10.0843Z" fill="#055904"/>
<path d="M48.8389 60.8643C44.5913 61.5207 39.5062 63.6689 38.7883 65.101C37.9507 66.5927 38.0105 115.463 38.7883 117.015C39.6258 118.566 41.1214 118.447 44.5315 116.478C47.2834 114.986 47.8817 114.866 54.9411 114.866C62.0005 114.866 62.6586 114.986 65.6498 116.478C69.1795 118.327 71.2136 118.566 72.2904 117.253C73.7861 115.463 79.29 114.389 85.7511 114.687C90.9559 114.926 92.2721 115.224 95.2035 116.716C101.066 119.64 100.707 121.251 100.887 91.0578L101.007 65.0413L99.0922 63.8479C93.4686 60.387 81.2642 59.4919 74.3843 62.0578C69.9572 63.6689 69.2393 63.6689 65.1114 62.1771C61.2227 60.745 53.6249 60.1483 48.8389 60.8643ZM64.0944 67.1298L66.9062 68.1442V81.8685C66.9062 90.1627 67.1455 96.0104 67.5044 96.7265C68.2223 97.9796 70.4957 98.2183 71.5725 97.1442C72.111 96.6071 72.2904 92.5495 72.2904 82.5845C72.2904 67.5475 72.1708 68.1442 75.88 66.8911C81.0249 65.1606 93.349 65.638 94.9044 67.6668C95.6223 68.5619 96.4 108.661 95.6821 109.735C95.2634 110.451 94.366 110.451 90.238 109.794C84.3752 108.899 78.5721 109.317 73.3075 111.047C69.7778 112.181 69.359 112.241 67.2651 111.346C63.197 109.675 55.4795 108.899 50.2747 109.615C47.7022 110.033 45.1896 110.391 44.7708 110.51C43.9931 110.689 43.8734 107.646 43.6939 89.387C43.5743 68.3829 43.5743 68.0845 44.7708 67.4281C48.4201 65.459 58.8297 65.3396 64.0944 67.1298Z" fill="#055904"/>
<path d="M10.5507 61.5209C9.53364 62.0579 9.47382 64.027 9.47382 89.3871C9.47382 109.854 9.65329 116.895 10.1917 117.432C10.6703 117.91 13.9009 118.148 20.9005 118.148C29.4555 118.148 30.9511 118.029 31.2502 117.194C31.4297 116.657 31.6092 104.066 31.6092 89.2081C31.6092 63.0126 31.5494 62.0579 30.4725 61.4612C28.9769 60.6855 11.9267 60.6855 10.5507 61.5209ZM26.2249 67.2493C26.5839 79.7801 26.4642 111.585 26.1053 112.301C25.6865 113.196 24.7891 113.375 20.6612 113.375C17.6101 113.375 15.3965 113.076 14.9777 112.659C14.4393 112.122 14.2598 106.274 14.2598 90.0435C14.2598 77.99 14.4393 67.7266 14.6188 67.1896C14.9179 66.4139 16.0546 66.2349 20.6013 66.2349C25.5668 66.2349 26.2249 66.3542 26.2249 67.2493Z" fill="#055904"/>
<path d="M108.604 61.9386C107.707 62.953 107.587 65.7575 107.587 89.8645C107.587 109.974 107.767 116.895 108.305 117.432C108.784 117.91 112.074 118.148 119.074 118.148C128.347 118.148 129.124 118.089 129.723 117.015C130.082 116.239 130.321 106.513 130.321 89.5661C130.321 64.027 130.261 63.1916 129.124 62.0579C128.048 60.9838 127.15 60.8645 118.775 60.8645C110.638 60.8645 109.442 60.9838 108.604 61.9386ZM124.817 89.6258L124.937 112.778L123.561 113.076C122.843 113.255 120.21 113.375 117.758 113.255L113.271 113.076L113.091 90.4015C113.031 77.9303 113.091 67.3686 113.271 66.9509C113.45 66.4139 115.006 66.2349 119.074 66.3542L124.638 66.5332L124.817 89.6258Z" fill="#055904"/>
<path d="M4.20918 125.428C3.19215 126.442 3.19215 139.689 4.20918 140.704C5.22621 141.718 133.97 141.718 134.987 140.704C136.004 139.689 136.004 126.442 134.987 125.428C133.97 124.414 5.22621 124.414 4.20918 125.428ZM130.62 133.066V135.751L69.7777 135.93L8.87556 136.049V133.066V130.082L69.7777 130.202L130.62 130.381V133.066Z" fill="#055904"/>
</svg>
