<svg width="186" height="148" viewBox="0 0 186 148" fill="none" xmlns="http://www.w3.org/2000/svg">
<path d="M89.6463 4.57571C87.8017 5.91892 85.8314 7.43003 85.2445 7.84979C84.6576 8.31151 79.669 11.9634 74.1354 15.951C61.517 25.1436 60.8044 25.6473 57.9956 27.7461C56.738 28.6695 54.6 30.2226 53.3004 31.1881C47.3057 35.5955 47.0961 35.7634 47.0961 36.7708C47.0961 37.3164 47.4734 37.9461 47.8926 38.1979C49.1502 38.8695 138.569 38.7856 139.239 38.114C140.371 36.9806 139.784 35.5115 137.604 34.0004C136.431 33.2029 134.796 31.9856 133.957 31.314C133.119 30.6844 131.735 29.6769 130.939 29.1313C130.142 28.5856 128.34 27.2844 126.956 26.235C125.573 25.1856 123.561 23.7165 122.471 22.9609C121.381 22.2473 116.141 18.3856 110.817 14.4819C105.493 10.5362 100.714 7.05225 100.169 6.71645C99.6655 6.38065 98.0306 5.20534 96.4795 4.07201C94.9703 2.98065 93.5869 2.09917 93.3773 2.09917C93.1677 2.09917 91.4908 3.2325 89.6463 4.57571ZM94.6769 7.09423C94.8865 7.43003 100.839 11.8374 106.373 15.7411C107.379 16.4127 109.014 17.63 110.02 18.3856C111.026 19.1411 114.757 21.8695 118.321 24.472C130.142 33.0769 131.358 34.0424 131.358 34.4202C131.358 34.9658 56.0253 35.0078 55.69 34.4621C55.5642 34.2103 55.8996 33.7485 56.4026 33.3708C57.6183 32.4893 61.3074 29.8448 64.4096 27.5782C65.7511 26.6127 67.8891 25.0597 69.1048 24.1362C70.3624 23.2127 72.1651 21.8695 73.1293 21.1979C74.0935 20.4844 76.1895 18.9732 77.7406 17.8399C79.2917 16.6646 82.4358 14.3979 84.6576 12.8029C86.8795 11.1658 89.6882 9.15102 90.862 8.26954C92.9581 6.71645 94.1738 6.33867 94.6769 7.09423Z" fill="#055904"/>
<path d="M78.8725 42.8152C75.8961 43.277 72.3327 44.7881 71.8297 45.7955C71.2428 46.8449 71.2847 81.2227 71.8297 82.314C72.4166 83.4054 73.4646 83.3214 75.8541 81.9362C77.7825 80.8869 78.2017 80.8029 83.1485 80.8029C88.0952 80.8029 88.5563 80.8869 90.6524 81.9362C93.1258 83.2375 94.5511 83.4054 95.3057 82.4819C96.3537 81.2227 100.21 80.4671 104.738 80.677C108.385 80.8449 109.307 81.0548 111.362 82.1041C115.47 84.1609 115.218 85.2943 115.344 64.0548L115.428 45.7535L114.086 44.914C110.146 42.4794 101.594 41.8498 96.7729 43.6548C93.6707 44.7881 93.1677 44.7881 90.2751 43.7387C87.5502 42.7313 82.2262 42.3115 78.8725 42.8152ZM89.5624 47.2227L91.5327 47.9362V57.5906C91.5327 63.4251 91.7004 67.5387 91.952 68.0424C92.455 68.9239 94.048 69.0918 94.8026 68.3362C95.1799 67.9585 95.3057 65.1041 95.3057 58.0943C95.3057 47.5165 95.2218 47.9362 97.821 47.0548C101.426 45.8375 110.062 46.1733 111.152 47.6004C111.655 48.2301 112.2 76.4375 111.697 77.193C111.403 77.6967 110.775 77.6967 107.882 77.235C103.774 76.6054 99.7074 76.8992 96.0183 78.1165C93.545 78.914 93.2515 78.956 91.7843 78.3264C88.9336 77.1511 83.5258 76.6054 79.8786 77.1091C78.076 77.4029 76.3153 77.6548 76.0218 77.7387C75.4769 77.8646 75.393 75.7239 75.2672 62.8794C75.1834 48.1041 75.1834 47.8943 76.0218 47.4325C78.579 46.0473 85.8734 45.9634 89.5624 47.2227Z" fill="#055904"/>
<path d="M52.0428 43.2768C51.3301 43.6545 51.2882 45.0397 51.2882 62.8792C51.2882 77.2768 51.414 82.2298 51.7913 82.6076C52.1266 82.9434 54.3904 83.1113 59.2952 83.1113C65.29 83.1113 66.338 83.0274 66.5476 82.4397C66.6734 82.0619 66.7991 73.2052 66.7991 62.7533C66.7991 44.3261 66.7572 43.6545 66.0026 43.2348C64.9546 42.6891 53.007 42.6891 52.0428 43.2768ZM63.0262 47.3064C63.2777 56.1212 63.1939 78.494 62.9424 78.9977C62.6489 79.6274 62.0201 79.7533 59.1275 79.7533C56.9895 79.7533 55.4384 79.5434 55.145 79.2496C54.7677 78.8718 54.6419 74.7582 54.6419 63.341C54.6419 54.8619 54.7677 47.6422 54.8934 47.2644C55.1031 46.7187 55.8996 46.5928 59.0856 46.5928C62.5651 46.5928 63.0262 46.6768 63.0262 47.3064Z" fill="#055904"/>
<path d="M120.752 43.5706C120.123 44.2842 120.039 46.257 120.039 63.215C120.039 77.3607 120.165 82.2298 120.542 82.6076C120.878 82.9434 123.183 83.1113 128.088 83.1113C134.586 83.1113 135.131 83.0694 135.55 82.3138C135.802 81.7681 135.969 74.9261 135.969 63.0052C135.969 45.0397 135.928 44.4521 135.131 43.6545C134.376 42.899 133.748 42.815 127.879 42.815C122.177 42.815 121.339 42.899 120.752 43.5706ZM132.113 63.0471L132.197 79.3336L131.232 79.5434C130.729 79.6694 128.885 79.7533 127.166 79.6694L124.022 79.5434L123.896 63.5928C123.854 54.82 123.896 47.3903 124.022 47.0965C124.148 46.7187 125.238 46.5928 128.088 46.6768L131.987 46.8027L132.113 63.0471Z" fill="#055904"/>
<path d="M47.5991 88.2323C46.8865 88.9459 46.8865 98.2644 47.5991 98.978C48.3118 99.6916 138.527 99.6916 139.239 98.978C139.952 98.2644 139.952 88.9459 139.239 88.2323C138.527 87.5187 48.3118 87.5187 47.5991 88.2323ZM136.179 93.6052V95.494L93.545 95.62L50.869 95.7039V93.6052V91.5064L93.545 91.5903L136.179 91.7163V93.6052Z" fill="#055904"/>
<path d="M36.9989 144.481C33.2742 144.481 30.3636 143.445 28.2669 141.373C26.1702 139.301 25.1219 136.353 25.1219 132.53V118.1H31.6709V132.345C31.6709 134.688 32.1396 136.39 33.0769 137.451C34.0389 138.487 35.3709 139.005 37.0729 139.005C38.7749 139.005 40.0946 138.487 41.0319 137.451C41.9939 136.39 42.4749 134.688 42.4749 132.345V118.1H48.9129V132.53C48.9129 136.353 47.8646 139.301 45.7679 141.373C43.6712 143.445 40.7482 144.481 36.9989 144.481ZM71.376 123.724C72.9546 123.724 74.3606 124.045 75.594 124.686C76.852 125.303 77.8386 126.265 78.554 127.572C79.2693 128.855 79.627 130.52 79.627 132.567V144H73.374V133.566C73.374 132.037 73.041 130.914 72.375 130.199C71.7336 129.484 70.821 129.126 69.637 129.126C68.7736 129.126 67.9966 129.311 67.306 129.681C66.64 130.026 66.122 130.569 65.752 131.309C65.382 132.049 65.197 133.023 65.197 134.232V144H58.907V124.02H64.901V129.644L63.754 127.979C64.4693 126.573 65.493 125.512 66.825 124.797C68.157 124.082 69.674 123.724 71.376 123.724ZM89.3713 144V124.02H95.6613V144H89.3713ZM92.5163 121.467C91.3569 121.467 90.4196 121.146 89.7043 120.505C88.9889 119.839 88.6313 119.025 88.6313 118.063C88.6313 117.101 88.9889 116.287 89.7043 115.621C90.4196 114.955 91.3569 114.622 92.5163 114.622C93.6756 114.622 94.6129 114.943 95.3283 115.584C96.0436 116.201 96.4013 116.99 96.4013 117.952C96.4013 118.963 96.0436 119.802 95.3283 120.468C94.6129 121.134 93.6756 121.467 92.5163 121.467ZM105.861 144V118.1H118.737C122.042 118.1 124.521 118.729 126.174 119.987C127.851 121.22 128.69 122.848 128.69 124.871C128.69 126.203 128.344 127.375 127.654 128.386C126.988 129.373 126.05 130.15 124.842 130.717C123.633 131.26 122.227 131.531 120.624 131.531L121.327 129.903C123.029 129.903 124.521 130.174 125.804 130.717C127.111 131.26 128.122 132.061 128.838 133.122C129.578 134.158 129.948 135.416 129.948 136.896C129.948 139.141 129.06 140.892 127.284 142.15C125.532 143.383 122.93 144 119.477 144H105.861ZM112.336 139.19H118.996C120.426 139.19 121.512 138.956 122.252 138.487C122.992 137.994 123.362 137.241 123.362 136.23C123.362 135.219 122.992 134.466 122.252 133.973C121.512 133.48 120.426 133.233 118.996 133.233H111.855V128.608H117.923C119.279 128.608 120.315 128.374 121.031 127.905C121.746 127.412 122.104 126.696 122.104 125.759C122.104 124.797 121.746 124.082 121.031 123.613C120.315 123.144 119.279 122.91 117.923 122.91H112.336V139.19ZM138.629 144V116.546H144.919V144H138.629ZM154.749 144V124.02H161.039V144H154.749ZM157.894 121.467C156.734 121.467 155.797 121.146 155.082 120.505C154.366 119.839 154.009 119.025 154.009 118.063C154.009 117.101 154.366 116.287 155.082 115.621C155.797 114.955 156.734 114.622 157.894 114.622C159.053 114.622 159.99 114.943 160.706 115.584C161.421 116.201 161.779 116.99 161.779 117.952C161.779 118.963 161.421 119.802 160.706 120.468C159.99 121.134 159.053 121.467 157.894 121.467Z" fill="#8BC43E"/>
</svg>
