<svg width="186" height="148" viewBox="0 0 186 148" fill="none" xmlns="http://www.w3.org/2000/svg">
<path d="M89.6463 4.57522C87.8018 5.91843 85.8314 7.42954 85.2445 7.8493C84.6576 8.31103 79.669 11.9629 74.1354 15.9505C61.517 25.1431 60.8044 25.6468 57.9956 27.7456C56.738 28.669 54.6 30.2221 53.3004 31.1876C47.3057 35.595 47.0961 35.7629 47.0961 36.7703C47.0961 37.316 47.4734 37.9456 47.8926 38.1974C49.1502 38.869 138.569 38.7851 139.239 38.1135C140.371 36.9802 139.784 35.511 137.604 33.9999C136.431 33.2024 134.796 31.9851 133.957 31.3135C133.119 30.6839 131.735 29.6765 130.939 29.1308C130.142 28.5851 128.34 27.2839 126.956 26.2345C125.573 25.1851 123.561 23.716 122.471 22.9604C121.381 22.2468 116.141 18.3851 110.817 14.4814C105.493 10.5357 100.714 7.05177 100.169 6.71596C99.6655 6.38016 98.0306 5.20485 96.4795 4.07152C94.9703 2.98016 93.5869 2.09868 93.3773 2.09868C93.1677 2.09868 91.4908 3.23201 89.6463 4.57522ZM94.6769 7.09374C94.8865 7.42954 100.839 11.837 106.373 15.7407C107.379 16.4123 109.014 17.6295 110.02 18.3851C111.026 19.1407 114.757 21.869 118.321 24.4715C130.142 33.0765 131.358 34.0419 131.358 34.4197C131.358 34.9653 56.0253 35.0073 55.69 34.4616C55.5642 34.2098 55.8996 33.7481 56.4026 33.3703C57.6183 32.4888 61.3074 29.8444 64.4096 27.5777C65.7511 26.6123 67.8891 25.0592 69.1048 24.1357C70.3624 23.2123 72.1651 21.869 73.1293 21.1974C74.0935 20.4839 76.1895 18.9728 77.7406 17.8394C79.2917 16.6641 82.4358 14.3974 84.6576 12.8024C86.8795 11.1653 89.6882 9.15053 90.862 8.26905C92.9581 6.71596 94.1738 6.33818 94.6769 7.09374Z" fill="white"/>
<path d="M78.8725 42.8148C75.8961 43.2765 72.3327 44.7876 71.8297 45.795C71.2428 46.8444 71.2847 81.2222 71.8297 82.3135C72.4166 83.4049 73.4646 83.3209 75.8541 81.9358C77.7825 80.8864 78.2017 80.8024 83.1485 80.8024C88.0952 80.8024 88.5563 80.8864 90.6524 81.9358C93.1258 83.237 94.5511 83.4049 95.3057 82.4814C96.3537 81.2222 100.21 80.4666 104.738 80.6765C108.385 80.8444 109.307 81.0543 111.362 82.1037C115.47 84.1604 115.218 85.2938 115.344 64.0543L115.428 45.753L114.086 44.9135C110.146 42.479 101.594 41.8493 96.7729 43.6543C93.6707 44.7876 93.1677 44.7876 90.2751 43.7382C87.5502 42.7308 82.2262 42.3111 78.8725 42.8148ZM89.5624 47.2222L91.5327 47.9357V57.5901C91.5327 63.4246 91.7004 67.5382 91.952 68.0419C92.455 68.9234 94.048 69.0913 94.8026 68.3357C95.1799 67.958 95.3057 65.1036 95.3057 58.0938C95.3057 47.516 95.2218 47.9357 97.821 47.0543C101.426 45.837 110.062 46.1728 111.152 47.5999C111.655 48.2296 112.2 76.437 111.697 77.1925C111.403 77.6962 110.775 77.6962 107.882 77.2345C103.774 76.6049 99.7074 76.8987 96.0183 78.116C93.545 78.9135 93.2515 78.9555 91.7843 78.3259C88.9336 77.1506 83.5258 76.6049 79.8786 77.1086C78.076 77.4024 76.3153 77.6543 76.0218 77.7382C75.4769 77.8641 75.393 75.7234 75.2672 62.879C75.1834 48.1036 75.1834 47.8938 76.0218 47.432C78.579 46.0469 85.8734 45.9629 89.5624 47.2222Z" fill="white"/>
<path d="M52.0428 43.2765C51.3301 43.6543 51.2882 45.0395 51.2882 62.879C51.2882 77.2765 51.414 82.2296 51.7913 82.6074C52.1266 82.9432 54.3904 83.1111 59.2952 83.1111C65.29 83.1111 66.338 83.0271 66.5476 82.4395C66.6734 82.0617 66.7991 73.2049 66.7991 62.7531C66.7991 44.3259 66.7572 43.6543 66.0026 43.2345C64.9546 42.6889 53.007 42.6889 52.0428 43.2765ZM63.0262 47.3061C63.2777 56.121 63.1939 78.4938 62.9424 78.9975C62.6489 79.6271 62.0201 79.7531 59.1275 79.7531C56.9895 79.7531 55.4384 79.5432 55.145 79.2494C54.7677 78.8716 54.6419 74.758 54.6419 63.3407C54.6419 54.8617 54.7677 47.642 54.8934 47.2642C55.1031 46.7185 55.8996 46.5926 59.0856 46.5926C62.5651 46.5926 63.0262 46.6765 63.0262 47.3061Z" fill="white"/>
<path d="M120.752 43.5703C120.123 44.2839 120.039 46.2568 120.039 63.2148C120.039 77.3605 120.165 82.2296 120.542 82.6074C120.878 82.9432 123.183 83.1111 128.088 83.1111C134.586 83.1111 135.131 83.0691 135.55 82.3136C135.802 81.7679 135.969 74.9259 135.969 63.0049C135.969 45.0395 135.928 44.4518 135.131 43.6543C134.376 42.8987 133.748 42.8148 127.879 42.8148C122.177 42.8148 121.339 42.8987 120.752 43.5703ZM132.113 63.0469L132.197 79.3333L131.232 79.5432C130.729 79.6691 128.885 79.7531 127.166 79.6691L124.022 79.5432L123.896 63.5926C123.854 54.8197 123.896 47.3901 124.022 47.0963C124.148 46.7185 125.238 46.5926 128.088 46.6765L131.987 46.8024L132.113 63.0469Z" fill="white"/>
<path d="M47.5991 88.2321C46.8865 88.9457 46.8865 98.2642 47.5991 98.9778C48.3118 99.6913 138.527 99.6913 139.239 98.9778C139.952 98.2642 139.952 88.9457 139.239 88.2321C138.527 87.5185 48.3118 87.5185 47.5991 88.2321ZM136.179 93.6049V95.4938L93.545 95.6197L50.869 95.7037V93.6049V91.5062L93.545 91.5901L136.179 91.716V93.6049Z" fill="white"/>
<path d="M36.9989 144.481C33.2742 144.481 30.3636 143.445 28.2669 141.373C26.1702 139.301 25.1219 136.353 25.1219 132.53V118.1H31.6709V132.345C31.6709 134.688 32.1396 136.39 33.0769 137.451C34.0389 138.487 35.3709 139.005 37.0729 139.005C38.7749 139.005 40.0946 138.487 41.0319 137.451C41.9939 136.39 42.4749 134.688 42.4749 132.345V118.1H48.9129V132.53C48.9129 136.353 47.8646 139.301 45.7679 141.373C43.6712 143.445 40.7482 144.481 36.9989 144.481ZM71.376 123.724C72.9546 123.724 74.3606 124.045 75.594 124.686C76.852 125.303 77.8386 126.265 78.554 127.572C79.2693 128.855 79.627 130.52 79.627 132.567V144H73.374V133.566C73.374 132.037 73.041 130.914 72.375 130.199C71.7336 129.484 70.821 129.126 69.637 129.126C68.7736 129.126 67.9966 129.311 67.306 129.681C66.64 130.026 66.122 130.569 65.752 131.309C65.382 132.049 65.197 133.023 65.197 134.232V144H58.907V124.02H64.901V129.644L63.754 127.979C64.4693 126.573 65.493 125.512 66.825 124.797C68.157 124.082 69.674 123.724 71.376 123.724ZM89.3713 144V124.02H95.6613V144H89.3713ZM92.5163 121.467C91.3569 121.467 90.4196 121.146 89.7043 120.505C88.9889 119.839 88.6313 119.025 88.6313 118.063C88.6313 117.101 88.9889 116.287 89.7043 115.621C90.4196 114.955 91.3569 114.622 92.5163 114.622C93.6756 114.622 94.6129 114.943 95.3283 115.584C96.0436 116.201 96.4013 116.99 96.4013 117.952C96.4013 118.963 96.0436 119.802 95.3283 120.468C94.6129 121.134 93.6756 121.467 92.5163 121.467ZM105.861 144V118.1H118.737C122.042 118.1 124.521 118.729 126.174 119.987C127.851 121.22 128.69 122.848 128.69 124.871C128.69 126.203 128.344 127.375 127.654 128.386C126.988 129.373 126.05 130.15 124.842 130.717C123.633 131.26 122.227 131.531 120.624 131.531L121.327 129.903C123.029 129.903 124.521 130.174 125.804 130.717C127.111 131.26 128.122 132.061 128.838 133.122C129.578 134.158 129.948 135.416 129.948 136.896C129.948 139.141 129.06 140.892 127.284 142.15C125.532 143.383 122.93 144 119.477 144H105.861ZM112.336 139.19H118.996C120.426 139.19 121.512 138.956 122.252 138.487C122.992 137.994 123.362 137.241 123.362 136.23C123.362 135.219 122.992 134.466 122.252 133.973C121.512 133.48 120.426 133.233 118.996 133.233H111.855V128.608H117.923C119.279 128.608 120.315 128.374 121.031 127.905C121.746 127.412 122.104 126.696 122.104 125.759C122.104 124.797 121.746 124.082 121.031 123.613C120.315 123.144 119.279 122.91 117.923 122.91H112.336V139.19ZM138.629 144V116.546H144.919V144H138.629ZM154.749 144V124.02H161.039V144H154.749ZM157.894 121.467C156.734 121.467 155.797 121.146 155.082 120.505C154.366 119.839 154.009 119.025 154.009 118.063C154.009 117.101 154.366 116.287 155.082 115.621C155.797 114.955 156.734 114.622 157.894 114.622C159.053 114.622 159.99 114.943 160.706 115.584C161.421 116.201 161.779 116.99 161.779 117.952C161.779 118.963 161.421 119.802 160.706 120.468C159.99 121.134 159.053 121.467 157.894 121.467Z" fill="white"/>
</svg>
